<svg width="512" height="512" viewBox="0 0 512 512" fill="none" xmlns="http://www.w3.org/2000/svg">
<path fill-rule="evenodd" clip-rule="evenodd" d="M0 115C0 72.4741 34.4741 38 77 38H253C260.18 38 266 43.8203 266 51V88C266 95.1797 260.18 101 253 101H78C69.7157 101 63 107.716 63 116V434C63 442.284 69.7157 449 78 449H396C404.284 449 411 442.284 411 434V267C411 259.82 416.82 254 424 254H461C468.18 254 474 259.82 474 267V435C474 477.526 439.526 512 397 512H77C34.4741 512 0 477.526 0 435V115Z" fill="#313131"/>
<path d="M218.201 268.853C212.734 263.386 212.734 254.521 218.201 249.054L420.277 46.9776C425.675 41.5798 434.402 41.5012 439.896 46.8009L465.091 71.1038C470.727 76.5402 470.808 85.5423 465.271 91.0794L262.749 293.602C257.281 299.069 248.417 299.069 242.95 293.602L218.201 268.853Z" fill="#313131"/>
<rect x="449" width="63" height="171" rx="14" fill="#313131"/>
<rect x="341" y="63" width="63" height="171" rx="14" transform="rotate(-90 341 63)" fill="#313131"/>
</svg>
