<svg width="400" height="500" viewBox="0 0 400 500" fill="none" xmlns="http://www.w3.org/2000/svg">
<rect x="14.5" y="101.414" width="282.22" height="384.086" rx="25.5" stroke="black" stroke-width="29"/>
<path fill-rule="evenodd" clip-rule="evenodd" d="M360 29H128.78C122.705 29 117.78 33.9249 117.78 40V40C117.78 47.5723 111.642 53.7109 104.07 53.7109H102.491C94.9191 53.7109 88.7805 47.5723 88.7805 40V40C88.7805 17.9086 106.689 0 128.78 0H360C382.091 0 400 17.9086 400 40V373.086C400 395.177 382.091 413.086 360 413.086V413.086C352.457 413.086 346.341 406.971 346.341 399.427V397.744C346.341 390.201 352.457 384.086 360 384.086V384.086C366.075 384.086 371 379.161 371 373.086V40C371 33.9248 366.075 29 360 29Z" fill="black"/>
</svg>
