<svg width="183" height="184" viewBox="0 0 183 184" fill="none" xmlns="http://www.w3.org/2000/svg">
<path fill-rule="evenodd" clip-rule="evenodd" d="M106.179 106.955C125.705 87.4292 125.705 55.7709 106.179 36.2447C86.6526 16.7185 54.9944 16.7185 35.4681 36.2447C15.9419 55.7709 15.9419 87.4292 35.4681 106.955C54.9944 126.482 86.6526 126.482 106.179 106.955ZM94.023 95.2995C107.004 82.3187 107.004 61.2727 94.023 48.2919C81.0422 35.3111 59.9962 35.3111 47.0154 48.2919C34.0346 61.2727 34.0346 82.3187 47.0154 95.2995C59.9962 108.28 81.0422 108.28 94.023 95.2995Z" fill="#030303"/>
<path d="M91.7468 104.241L103.481 92.5066L149.443 138.469C151.396 140.421 151.396 143.587 149.443 145.54L144.78 150.203C142.827 152.156 139.661 152.156 137.709 150.203L91.7468 104.241Z" fill="#030303"/>
</svg>
